HIERARCHY
ROOT Hips
{
	OFFSET 0.00000 0.00000 0.00000
	CHANNELS 6 Xposition Yposition Zposition Yrotation Zrotation Xrotation 
	JOINT Lumbar
	{
		OFFSET 0 0 0
		CHANNELS 3 Zrotation Xrotation Yrotation
		JOINT Neck
		{
			OFFSET 0.00 0.2701 0.00
			CHANNELS 3 Zrotation Xrotation Yrotation
			End Site
			{
				OFFSET 0.00 0.1379 0.00
			}
		}
		JOINT RightShoulder
		{
			OFFSET 0.0119 0.2289 0.1181
			CHANNELS 3 Zrotation Xrotation Yrotation
			JOINT RightElbow
			{
				OFFSET 0.00 -0.1475 0.00
				CHANNELS 2 Zrotation Yrotation
				JOINT RightWrist
				{
					OFFSET 0.00 -0.1605 0.00
					CHANNELS 2 Zrotation Xrotation
					End Site
					{
						OFFSET 0.0040 -0.1068 0.0006
					}
				}
			}
		}
		JOINT LeftShoulder
		{
			OFFSET 0.0119 0.2289 -0.1181
			CHANNELS 3 Zrotation Xrotation Yrotation
			JOINT LeftElbow
			{
				OFFSET 0.00 -0.1475 0.00
				CHANNELS 2 Zrotation Yrotation
				JOINT LeftWrist
				{
					OFFSET 0.00 -0.1605 0.00
					CHANNELS 2 Zrotation Xrotation
					End Site
					{
						OFFSET 0.0040 -0.1068 -0.0006
					}
				}
			}
		}
	}
	JOINT RightHip
	{
		OFFSET 0.0316 -0.0424 0.0458
		CHANNELS 3 Zrotation Xrotation Yrotation
		JOINT RightKnee
		{
			OFFSET 0.00 -0.2438 0.00
			CHANNELS 1 Zrotation
			JOINT RightAnkle
			{
				OFFSET 0.00 -0.2449 0.00
				CHANNELS 3 Zrotation Xrotation Yrotation
				End Site
				{
					OFFSET 0.1237 -0.0542 0.0051
				}
			}
		}
	}
	JOINT LeftHip
	{
		OFFSET 0.0316 -0.0424 -0.0458
		CHANNELS 3 Zrotation Xrotation Yrotation
		JOINT LeftKnee
		{
			OFFSET 0.00 -0.2438 0.00
			CHANNELS 1 Zrotation
			JOINT LeftAnkle
			{
				OFFSET 0.00 -0.2449 0.00
				CHANNELS 3 Zrotation Xrotation Yrotation
				End Site
				{
					OFFSET 0.1237 -0.0542 -0.0051
				}
			}
		}
	}
}
MOTION
Frames: 16
Frame Time: 0.02
0.00091 0.00024 -6e-05 18.53944 -35.25743 -2.64894 56.01001 2.49752 2.54856 -4.29375 -9.16022 -0.24109 162.32984 -74.75539 -52.12991 13.03667 87.63864 -1.8466 -8.86571 -12.12044 107.85734 -64.16793 5.55863 -81.82308 13.33189 3.27661 48.59722 -2.67533 -3.9208 -18.95746 -8.7175 -5.30381 -3.75745 52.68572 2.31848 -4.77242 -24.37017 -8.73388 4.47072 3.8365
0.00048 0.00013 0.00016 18.53144 -35.24834 -2.64864 56.00561 2.48699 2.54495 -4.32831 -9.14855 -0.24088 161.95511 -74.78622 -52.4242 13.01795 87.6569 -1.82888 -8.86515 -12.46023 107.8534 -64.16762 5.5716 -81.81603 13.19967 3.32085 48.64054 -2.71972 -4.22593 -18.96926 -8.6916 -5.30926 -3.7421 52.72193 2.48065 -4.0733 -24.36603 -8.72645 4.53872 3.80172
5e-05 2e-05 0.00039 18.52341 -35.23925 -2.64832 56.00125 2.47646 2.54142 -4.36291 -9.13666 -0.24067 161.58093 -74.81709 -52.71811 12.99921 87.67507 -1.81104 -8.86449 -12.79945 107.84937 -64.16732 5.58458 -81.8089 13.06761 3.36493 48.68378 -2.76396 -4.53003 -18.98104 -8.66577 -5.3147 -3.72679 52.75807 2.64237 -3.37602 -24.36192 -8.71902 4.6065 3.76703
-0.00037 -8e-05 0.00061 18.51543 -35.23018 -2.64802 55.99686 2.46596 2.53784 -4.39738 -9.12499 -0.24046 161.20732 -74.84783 -53.01155 12.98053 87.6933 -1.79336 -8.86392 -13.13825 107.84545 -64.16703 5.59752 -81.80184 12.93576 3.40904 48.72698 -2.80821 -4.8342 -18.99281 -8.63995 -5.32013 -3.71148 52.79418 2.80405 -2.67901 -24.3578 -8.71161 4.67429 3.73236
-0.0008 -0.00019 0.00083 18.50751 -35.22111 -2.64775 55.99241 2.45547 2.53416 -4.43177 -9.11361 -0.24025 160.83323 -74.8785 -53.30524 12.96191 87.71154 -1.77582 -8.86344 -13.47748 107.84161 -64.16672 5.61042 -81.79491 12.80384 3.45331 48.77022 -2.8526 -5.13944 -19.0046 -8.61404 -5.32558 -3.69613 52.83034 2.96615 -1.98025 -24.35365 -8.70421 4.74232 3.69759
-0.00123 -0.0003 0.00106 18.49922 -35.21197 -2.64729 55.98826 2.44485 2.53093 -4.46684 -9.10061 -0.24005 160.4588 -74.90981 -53.59967 12.9429 87.72952 -1.75735 -8.86241 -13.81669 107.83716 -64.16643 5.62356 -81.78737 12.67148 3.49698 48.81348 -2.89656 -5.44113 -19.01633 -8.58838 -5.33098 -3.68093 52.86643 3.12707 -1.28613 -24.34961 -8.69674 4.80957 3.66308
-0.00166 -0.00041 0.00128 18.4917 -35.20299 -2.64724 55.98351 2.43452 2.52682 -4.5004 -9.09095 -0.23983 160.08589 -74.93973 -53.89203 12.92471 87.74822 -1.74083 -8.86253 -14.15544 107.83406 -64.16615 5.63623 -81.78104 12.54017 3.54184 48.85666 -2.94132 -5.74958 -19.02817 -8.56227 -5.33648 -3.66544 52.90264 3.29018 -0.5835 -24.34536 -8.6894 4.8783 3.62809
-0.00209 -0.00052 0.00151 18.48348 -35.19384 -2.64679 55.97932 2.42389 2.52348 -4.53554 -9.07812 -0.23964 159.71081 -74.97107 -54.18675 12.9057 87.76587 -1.72242 -8.86153 -14.49485 107.8295 -64.16577 5.64929 -81.77363 12.40785 3.58556 48.8999 -2.98537 -6.05188 -19.03991 -8.53656 -5.34189 -3.65021 52.93872 3.45128 0.11138 -24.3413 -8.68194 4.94567 3.59354
-0.00251 -0.00063 0.00173 18.47432 -35.18459 -2.64592 55.97577 2.41301 2.52125 -4.57194 -9.06174 -0.23945 159.33587 -75.00363 -54.4828 12.88594 87.78376 -1.70205 -8.85936 -14.83435 107.82399 -64.1656 5.66299 -81.76473 12.27437 3.62806 48.94332 -3.02844 -6.34646 -19.05153 -8.51136 -5.34718 -3.63532 52.97474 3.60997 0.79673 -24.33747 -8.67433 5.01139 3.55951
-0.00294 -0.00074 0.00196 18.4703 -35.17623 -2.64769 55.96842 2.40392 2.51313 -4.59908 -9.06675 -0.23914 158.96848 -75.02759 -54.76657 12.87127 87.80485 -1.69399 -8.86453 -15.1712 107.82646 -64.16522 5.67351 -81.76391 12.14779 3.6781 48.98601 -3.0768 -6.68487 -19.06387 -8.48329 -5.35312 -3.61852 53.01139 3.78268 1.53678 -24.33231 -8.6676 5.08667 3.52246
-0.00337 -0.00085 0.00217 18.45563 -35.16578 -2.64373 55.96917 2.39084 2.51714 -4.647 -9.02601 -0.23913 158.57993 -75.07071 -55.0791 12.84535 87.81625 -1.6593 -8.85385 -15.51493 107.81052 -64.16467 5.69043 -81.74636 12.00654 3.71192 49.03002 -3.11422 -6.93115 -19.07468 -8.46125 -5.3577 -3.60574 53.04653 3.92567 2.16144 -24.32997 -8.65901 5.14174 3.49178
-0.00381 -0.00096 0.00235 18.40964 -35.15115 -2.6251 55.9914 2.36833 2.55743 -4.7427 -8.86349 -0.23986 158.16998 -75.16037 -55.45357 12.7909 87.82413 -1.55587 -8.80112 -15.87146 107.75463 -64.16557 5.72752 -81.68059 11.8236 3.70199 49.07942 -3.11979 -6.91958 -19.08148 -8.45615 -5.35857 -3.60424 53.07876 3.98756 2.46664 -24.33526 -8.6452 5.14096 3.47876
-0.00425 -0.00106 0.00251 18.35329 -35.13405 -2.60048 56.02181 2.34153 2.60943 -4.86111 -8.65434 -0.24094 157.72824 -75.27167 -55.86374 12.72368 87.81749 -1.42462 -8.73147 -16.23876 107.67711 -64.1638 5.77054 -81.59904 11.62488 3.6747 49.12977 -3.11477 -6.81659 -19.08675 -8.45702 -5.35807 -3.60673 53.10918 4.01953 2.65656 -24.3434 -8.62955 5.11994 3.47209
-0.00469 -0.00117 0.00268 18.30309 -35.11716 -2.57791 56.0491 2.31574 2.65401 -4.975 -8.46401 -0.24185 157.28192 -75.37532 -56.26401 12.66205 87.80311 -1.30363 -8.66954 -16.6017 107.6041 -64.16475 5.80915 -81.52542 11.43595 3.65602 49.17856 -3.11574 -6.75849 -19.09259 -8.45497 -5.35821 -3.60726 53.1397 4.0649 2.90105 -24.35028 -8.61483 5.10845 3.4624
-0.00513 -0.00128 0.00285 18.24694 -35.10442 -2.55824 56.07427 2.29394 2.70713 -5.06394 -8.28347 -0.24263 156.93129 -75.46443 -56.62263 12.60552 87.85139 -1.19376 -8.61044 -16.95128 107.55838 -64.16819 5.85504 -81.44606 11.24128 3.63806 49.23227 -3.11155 -6.68539 -19.09885 -8.45393 -5.35833 -3.60848 53.17351 4.11104 3.13594 -24.35697 -8.59974 5.09555 3.45332
-0.00557 -0.00139 0.00301 18.20053 -35.08206 -2.53101 56.10529 2.26278 2.74566 -5.21088 -8.07164 -0.244 156.35448 -75.59566 -57.09531 12.53008 87.76302 -1.05274 -8.5377 -17.34518 107.44458 -64.15472 5.88716 -81.37807 11.04812 3.60973 49.27578 -3.11583 -6.62276 -19.10403 -8.45205 -5.35807 -3.60915 53.19973 4.14846 3.36371 -24.36479 -8.58493 5.08074 3.44444
